<svg width="99" height="26" viewBox="0 0 99 26" fill="none" xmlns="http://www.w3.org/2000/svg">
<path d="M0.367188 25V1.07422H12.8086V2.37305H1.73438V12.4219H9.5957V13.7207H1.73438V23.7012H12.8086V25H0.367188ZM14.5176 7.39746H16.0557L21.7295 23.9404L21.2852 25H20.6016L14.5176 7.39746ZM21.5244 20.2148L26.1045 7.39746H27.6426L22.4814 21.8555H22.0713L21.5244 20.2148ZM29.3516 20.1807V12.1143C29.3743 11.0889 29.8529 10.0863 30.7871 9.10645C31.9264 7.94434 33.305 7.36328 34.9229 7.36328V8.66211C33.5329 8.66211 32.3822 9.27734 31.4707 10.5078C30.9694 11.1914 30.7188 11.818 30.7188 12.3877V15.2588H40.665V12.3877C40.665 11.2028 40.084 10.2116 38.9219 9.41406C38.1243 8.86719 37.304 8.59375 36.4609 8.59375V7.36328C37.9876 7.36328 39.3434 7.92155 40.5283 9.03809C41.5081 9.97233 42.0094 10.9863 42.0322 12.0801V16.5576H30.7188V20.1807C30.7188 20.9098 31.1631 21.6732 32.0518 22.4707C32.9632 23.2682 33.9316 23.6784 34.957 23.7012V25C32.9746 25 31.4023 24.1911 30.2402 22.5732C29.6478 21.7074 29.3516 20.9098 29.3516 20.1807ZM36.4609 25V23.5986C37.9876 23.5986 39.2181 22.9378 40.1523 21.6162C40.4486 21.2061 40.6423 20.8073 40.7334 20.4199L42.0664 20.8984C41.5651 22.6074 40.5283 23.8037 38.9561 24.4873C38.1813 24.8291 37.3496 25 36.4609 25ZM44.7324 25V12.1143C44.7324 11.0433 45.2223 10.0065 46.2021 9.00391C47.3415 7.8418 48.7428 7.26074 50.4062 7.26074V8.62793C49.0846 8.62793 47.9567 9.14062 47.0225 10.166C46.4072 10.8496 46.0996 11.556 46.0996 12.2852V25H44.7324ZM51.8418 8.62793V7.26074C53.8926 7.26074 55.4876 8.09245 56.627 9.75586C57.2194 10.599 57.5156 11.3851 57.5156 12.1143V25H56.1484V12.2852C56.1484 11.5332 55.7611 10.7585 54.9863 9.96094C54.0977 9.09505 53.0495 8.65072 51.8418 8.62793ZM59.498 9.10645V7.77344H61.6514V1.07422H63.0186V7.77344H65.1719V9.10645H63.0186V19.5654C63.0186 21.5706 63.6452 22.8353 64.8984 23.3594C65.4909 23.5872 66.2201 23.7012 67.0859 23.7012H67.1201L67.4277 25H66.915C64.1807 24.9772 62.5286 23.929 61.959 21.8555C61.7539 21.1491 61.6514 20.2832 61.6514 19.2578V9.10645H59.498ZM68.7949 18.4375V7.08984C68.7949 5.83659 69.3076 4.58333 70.333 3.33008C71.723 1.71224 73.4889 0.90332 75.6309 0.90332V2.20215C73.9902 2.20215 72.6003 2.86296 71.4609 4.18457C70.5951 5.20996 70.1621 6.36068 70.1621 7.63672V18.4375C70.1621 20.4883 71.1647 22.0492 73.1699 23.1201C74.1042 23.6214 74.9245 23.8721 75.6309 23.8721V25.1709C74.1953 25.1709 72.8053 24.681 71.4609 23.7012C69.7064 22.4023 68.8177 20.6478 68.7949 18.4375ZM77.1689 25.1709V23.8721C78.1943 23.8721 79.2653 23.3594 80.3818 22.334C81.6351 21.1719 82.2731 19.8958 82.2959 18.5059V14.2334H77.1689V12.9346H83.6631V18.9844C83.6631 20.3743 82.9567 21.7529 81.5439 23.1201C80.1084 24.4645 78.6501 25.1481 77.1689 25.1709ZM77.1689 2.20215V0.90332C78.9463 0.880534 80.5186 1.62109 81.8857 3.125C83.0706 4.42383 83.6631 5.83659 83.6631 7.36328L82.3301 7.8418C82.3301 7.59115 82.3187 7.40885 82.2959 7.29492C82.1364 5.24414 81.1224 3.74023 79.2539 2.7832C78.4792 2.39583 77.7842 2.20215 77.1689 2.20215ZM86.3291 20.1807V12.1484C86.3291 11.1003 86.8076 10.0863 87.7646 9.10645C88.8812 7.94434 90.2712 7.36328 91.9346 7.36328V8.66211C90.3395 8.66211 89.1204 9.3457 88.2773 10.7129C87.89 11.3509 87.6963 11.9775 87.6963 12.5928V19.7363C87.6963 20.6478 88.1406 21.5479 89.0293 22.4365C89.8952 23.3024 90.8636 23.7354 91.9346 23.7354V25.0342C89.8382 25.0342 88.2318 24.1911 87.1152 22.5049C86.5911 21.6846 86.3291 20.9098 86.3291 20.1807ZM93.3359 25.0342V23.7354C94.7943 23.7354 95.945 23.0632 96.7881 21.7188C97.1982 21.0579 97.4033 20.4199 97.4033 19.8047V12.5928C97.4033 11.5902 96.9704 10.6559 96.1045 9.79004C95.307 9.03809 94.3841 8.66211 93.3359 8.66211V7.36328C95.3639 7.36328 96.9134 8.19499 97.9844 9.8584C98.5085 10.6559 98.7705 11.4193 98.7705 12.1484V20.1807C98.7705 21.2516 98.3034 22.2884 97.3691 23.291C96.2982 24.4303 94.9538 25.0114 93.3359 25.0342Z" fill="black"/>
</svg>